<svg id="Layer_1" data-name="Layer 1" xmlns="http://www.w3.org/2000/svg" viewBox="0 0 383.24 383.31"><defs><style>.cls-1{fill:#ac1cd0;}</style></defs><path class="cls-1" d="M0,153.51V146c2.25-8.12,6.74-14.35,15-17.49,0-5.72-.18-11.34.09-16.93a13.28,13.28,0,0,1,2-6.57c5.73-8.31,11.78-16.4,17.66-24.6a9,9,0,0,1,7.92-4.06c7.48.1,15-.21,22.43.17a12.41,12.41,0,0,1,7.23,3C78.69,85.47,84.7,91.81,90.87,98c.66.66,1.44,1.21,2.39,2l10-11C94.54,80.37,85.58,71.38,76.5,62.5a5.27,5.27,0,0,0-3.37-1c-5.48-.1-11-.25-16.45,0a12.23,12.23,0,0,1-10.22-4.32c-3.81-4.11-8-7.9-11.83-12C33,43.52,31.7,43,29.2,43.79a22,22,0,0,1-26.08-10A65.07,65.07,0,0,1,0,26.26V18.78a10.24,10.24,0,0,0,.62-1.35C4.69,4.19,16.52-2.75,28.89,1A22.44,22.44,0,0,1,43.57,30.29a4.07,4.07,0,0,0,.84,3.45q5.36,5.76,11.1,11.12a6.46,6.46,0,0,0,3.9,1.54c5.73.17,11.48.22,17.21,0a11.24,11.24,0,0,1,8.94,3.75c9,9.18,18.12,18.22,27.13,27.37A18.73,18.73,0,0,1,114.88,81a137.55,137.55,0,0,1,59.75-23c-3.75-3.73-6.77-7-10.14-9.92a9.47,9.47,0,0,0-5.44-2.28c-10.23-.22-20.46-.08-30.69-.11-5.53,0-8.8-2.83-8.81-7.47s3.2-7.47,8.74-7.48c11.85,0,23.71-.21,35.55.14a13.07,13.07,0,0,1,7.85,3.26c7.24,6.69,14,13.88,21.09,20.72A8.19,8.19,0,0,0,197.56,57,135.75,135.75,0,0,1,258,74.52c3.22,1.84,6.37,3.82,8.67,5.21l26.82-26.32c-4.95-4.92-10.52-9.65-15.06-15.21-5.47-6.69-11.81-9.57-20.37-8.32-2.34.34-3.6.79-4.74,3A22.07,22.07,0,0,1,228.1,44.26,22.43,22.43,0,0,1,227.7.84c10.14-2.65,20.59,1.66,25.39,11,1.4,2.71,3,3.42,5.72,3.27,3.85-.2,7.74.14,11.59-.1a12,12,0,0,1,10,4.05c8.17,8.41,16.59,16.57,24.79,25,1.81,1.84,3.73,2.24,6.19,2.6,10.68,1.57,19-1.75,25.47-10.47,2-2.71,4.28-4.58,2.31-8.25a10.52,10.52,0,0,1-.72-4.38,22.43,22.43,0,1,1,40.74,12A22.13,22.13,0,0,1,354,43.8c-2.23-.73-3.55-.49-5.15,1.2-4.2,4.44-8.65,8.63-12.9,13a10.37,10.37,0,0,1-8.31,3.45c-4.23-.16-8.51.29-12.71-.12-5.16-.51-8.79,1.26-12.34,5-7.4,7.87-15.34,15.24-22.1,21.87l9.82,11.64c5.93-5.88,11.89-11.23,17.16-17.18,4.26-4.8,8.92-7,15.37-6.41,5.19.47,11,1.43,15.53-.42S346,69,349.74,65.34c.54-.52,1.05-1.07,1.6-1.58,3.49-3.26,8-3.42,11-.39s2.93,7.44-.51,11c-4.7,4.83-9.36,9.71-14.36,14.21a12,12,0,0,1-6.62,2.7,81.25,81.25,0,0,1-14.21,0c-4.77-.41-8.15,1.18-11.31,4.72-4.87,5.45-10.22,10.46-15.37,15.66,13.79,18.88,22.08,39.55,25.46,63.55,3.94-4.21,7.2-7.45,10.15-11a8.49,8.49,0,0,0,2-4.83c.18-10.35.06-20.71.1-31.06,0-5.51,2.87-8.77,7.52-8.76s7.42,3.25,7.43,8.8c0,11.72-.08,23.45.06,35.17a11.09,11.09,0,0,1-3.63,8.61c-6.95,6.81-13.84,13.68-20.59,20.69a8.17,8.17,0,0,0-2.1,4.8c-1.07,17.73-4.83,34.82-12.68,50.79-3.94,8-8.66,15.63-13.48,24.23,2.94,2.73,6.9,5.44,9.56,9.09,6.49,8.91,14.93,12,25.48,10.14a7.61,7.61,0,0,0,4.2-2.14c2.57-3,4.48-6.66,7.17-9.57,5.63-6.05,7.69-13,6.85-21.13-.3-2.82-.68-4.52-3.47-6a21.92,21.92,0,0,1-10.34-26.87c3.59-10.19,14.12-16.57,24.48-14.84,11.23,1.88,19.35,11.25,19.09,22.46-.24,10.18-5.68,17-14.92,21.09,0,5.62.21,11.24-.1,16.82a14.09,14.09,0,0,1-2.19,6.89c-5.58,8.12-11.51,16-17.22,24a9.46,9.46,0,0,1-8.54,4.35c-6.74-.14-13.48-.24-20.21,0a12.84,12.84,0,0,1-10.55-4.41c-6.18-6.47-12.68-12.64-19.14-19l-10,11.16c8.38,8.31,17.38,17.29,26.49,26.15a5.37,5.37,0,0,0,3.39,1c5.87.09,11.76-.29,17.58.19a14.83,14.83,0,0,1,7.89,3.25,170.36,170.36,0,0,1,13,12.9c1.68,1.79,3.05,2,5.45,1.28a22.41,22.41,0,1,1,13.19,42.84c-.94.29-1.85.64-2.78,1h-7.49a5.79,5.79,0,0,0-1-.55c-14.25-4.16-20.36-15.37-16.4-29.75a4.65,4.65,0,0,0-1.17-3.7c-3.95-4.16-7.46-9.59-12.37-11.71-4.75-2.05-11-.61-16.6-.69a27.11,27.11,0,0,0-3,0c-3.5.33-6.2-1-8.64-3.51-7.59-7.76-15.33-15.36-22.94-23.09-2.43-2.47-4.64-5.14-7-7.74-18.27,12.46-37.63,19.76-59.95,22.91,4.23,3.95,7.48,7.21,11,10.15a8.4,8.4,0,0,0,4.83,2c10.34.18,20.7.07,31,.1,5.5,0,8.77,2.87,8.76,7.52s-3.26,7.42-8.81,7.43c-11.73,0-23.45-.07-35.17.06a11.13,11.13,0,0,1-8.61-3.63c-6.8-7-13.67-13.85-20.67-20.6a8.17,8.17,0,0,0-4.8-2.1c-16.32-1-32.14-4.19-47-11-7.88-3.61-15.45-7.89-22.23-11.38L89.8,329.67a3.19,3.19,0,0,0,.38.6c5,5,10.45,9.73,14.93,15.2,5.2,6.35,11.21,9.12,19.36,8,2.66-.35,4.29-.65,5.69-3.35a21.78,21.78,0,0,1,24.65-11.09,22.38,22.38,0,0,1,2.12,43l-3.48,1.25H146c-8.13-2.23-14.33-6.75-17.46-15-4.74,0-9.37-.33-13.94.09-5.5.49-9.41-1.59-13.11-5.5-7.8-8.23-15.93-16.15-24.06-24.06A7.41,7.41,0,0,0,72.91,337c-5.23-.2-11-1.4-15.54.4-4.38,1.74-7.47,6.73-11.12,10.29a13.22,13.22,0,0,1-1.07,1.05c-1.92,1.44-2.22,2.93-1.42,5.4a22.27,22.27,0,0,1-15.14,28.33c-.82.24-1.61.57-2.42.85H18.71C8.84,380.71,2.57,374.5,0,364.6v-7.49a3.71,3.71,0,0,0,.52-1c2.66-13.2,17.1-21.15,29.81-16.38,1,.36,2.82-.34,3.69-1.16q6.66-6.3,13-12.94a11.08,11.08,0,0,1,8.93-3.77c5.73.2,11.47.11,17.21,0a5.38,5.38,0,0,0,3.37-1c9.1-8.85,18.1-17.81,26.37-26l-10-11.19c-6,5.95-12.2,11.58-17.81,17.73-3.88,4.24-8.1,6.07-13.82,5.65-5.45-.41-11.56-1.5-16.28.43s-8,7.21-11.94,11c-.27.26-.52.54-.79.79-3.68,3.52-8.22,3.82-11.3.76s-3-7.54.66-11.24c4.54-4.63,9-9.41,13.85-13.65a13.84,13.84,0,0,1,7.59-3c5.83-.44,11.71-.11,17.57-.17,1.06,0,2.46,0,3.13-.67C70.42,285,77,278.51,83.56,272.1a137,137,0,0,1-25.68-63.61c-3.92,4-7.31,7.3-10.4,10.82a7.71,7.71,0,0,0-1.79,4.54c-.15,10.35,0,20.7-.09,31.05,0,5.57-2.79,8.82-7.42,8.87s-7.51-3.2-7.53-8.7c0-11.73.08-23.45-.06-35.17a11.08,11.08,0,0,1,3.55-8.64c6.87-6.71,13.69-13.47,20.33-20.41a9.31,9.31,0,0,0,2.44-5.41c1.55-25.88,9.45-49.54,24.29-70.84.68-1,1.3-2,2.29-3.55-6-5.84-12-11.48-17.85-17.3a7.15,7.15,0,0,0-5.87-2.41c-4.84.24-10.42-1.23-14.34.73s-5.54,7.45-8.69,11c-5.57,6.21-7.94,13.15-6.91,21.48.33,2.64.58,4.31,3.32,5.7A21.89,21.89,0,0,1,44.68,153a22.64,22.64,0,0,1-19.06,19,22.36,22.36,0,0,1-22.85-11.6A65.76,65.76,0,0,1,0,153.51Zm71.86,38.13c0,65.94,53.67,119.72,119.62,119.81s119.76-53.57,119.91-119.54-53.72-120-119.82-120S71.89,125.68,71.86,191.64ZM29.91,22.38a7.46,7.46,0,1,0-7.5,7.6A7.54,7.54,0,0,0,29.91,22.38ZM241,22.65A7.46,7.46,0,1,0,233.22,30,7.56,7.56,0,0,0,241,22.65Zm119.68-7.59a7.46,7.46,0,1,0,7.57,7.53A7.54,7.54,0,0,0,360.68,15.06ZM29.91,149.91a7.46,7.46,0,1,0-7.78,7.31A7.55,7.55,0,0,0,29.91,149.91Zm330.91,76.24a7.46,7.46,0,1,0,7.43,7.3A7.54,7.54,0,0,0,360.82,226.15ZM22.4,368.32a7.46,7.46,0,1,0-7.4-7.7A7.57,7.57,0,0,0,22.4,368.32Zm134.76-7.39a7.46,7.46,0,1,0-7.71,7.38A7.54,7.54,0,0,0,157.16,360.93Zm211.09-.18a7.46,7.46,0,1,0-7.54,7.57A7.54,7.54,0,0,0,368.25,360.75Z"/><path class="cls-1" d="M191.57,158.07a38.06,38.06,0,0,1,67.36,31.29,7.49,7.49,0,0,1-8.54,6.07c-4.07-.58-6.47-4.29-6.29-8.77.18-4.18.51-8.56-.49-12.53-2.59-10.36-12.54-16.86-23.26-15.95-11.85,1-19.77,8.87-21.12,21-.11,1-.06,2-.25,3a7.47,7.47,0,0,1-14.78-.44c-.41-2.7-.52-5.5-1.36-8.06a22.64,22.64,0,0,0-27.07-14.91c-11.72,2.82-19,14.14-17,26.56s9.2,21.61,18,29.83c9.9,9.25,21.2,16.56,33.05,23a4.86,4.86,0,0,0,4-.12c4.79-2.65,9.42-5.59,14.12-8.41,4.42-2.65,8.79-2,11.16,1.71s1.3,8.14-3.09,10.86c-6.68,4.12-13.39,8.22-20.35,11.83-2,1-5.43,1.33-7.34.32-16.81-8.84-33-18.72-46.27-32.56-10.8-11.23-18-24.21-18.48-40.14A37.78,37.78,0,0,1,189,155.12C189.71,155.94,190.44,156.79,191.57,158.07Z"/><path class="cls-1" d="M236.84,208.17a7.46,7.46,0,0,1-.36,14.92c-4.12-.14-6.94-3.27-6.87-7.64S232.68,208.12,236.84,208.17Z"/></svg>